<?xml version="1.0" encoding="UTF-8"?>
<svg xmlns="http://www.w3.org/2000/svg" xmlns:xlink="http://www.w3.org/1999/xlink" width="375pt" height="374.999991pt" viewBox="0 0 375 374.999991" version="1.2">
<defs>
<clipPath id="clip1">
  <path d="M 159 37.5 L 241 37.5 L 241 299 L 159 299 Z M 159 37.5 "/>
</clipPath>
<clipPath id="clip2">
  <path d="M 109 37.5 L 207 37.5 L 207 302 L 109 302 Z M 109 37.5 "/>
</clipPath>
<clipPath id="clip3">
  <path d="M 181 276 L 237 276 L 237 316.5 L 181 316.5 Z M 181 276 "/>
</clipPath>
</defs>
<g id="surface1">
<path style=" stroke:none;fill-rule:nonzero;fill:rgb(1.568604%,29.019165%,37.649536%);fill-opacity:1;" d="M 373.535156 49.070312 C 316.992188 17.136719 252.539062 0.144531 187.5 0.144531 C 122.460938 0.144531 58.007812 17.136719 1.464844 49.070312 C 0.585938 49.363281 0 50.535156 0 51.414062 C 1.171875 191.453125 74.121094 318.308594 186.328125 374.558594 C 186.621094 374.851562 187.207031 374.851562 187.5 374.851562 C 188.085938 374.851562 188.378906 374.851562 188.671875 374.558594 C 300.585938 318.308594 373.828125 191.453125 375 51.414062 C 375 50.535156 374.414062 49.363281 373.535156 49.070312 Z M 373.535156 49.070312 "/>
<path style=" stroke:none;fill-rule:nonzero;fill:rgb(100%,87.059021%,34.899902%);fill-opacity:1;" d="M 208.699219 94.246094 C 203.738281 103.585938 200 113.742188 198.472656 124.230469 C 207.285156 130.695312 217.238281 135.550781 228.257812 136.554688 C 244.960938 138.078125 261.035156 131.78125 277.675781 131.886719 C 282.941406 131.921875 287.957031 132.683594 292.746094 134.027344 C 291.195312 125.855469 285.082031 118.019531 279.785156 112.257812 C 271.835938 103.613281 261.773438 96.296875 250.144531 93.78125 C 249.894531 94.003906 249.644531 94.226562 249.371094 94.429688 C 243.972656 98.527344 236.089844 97.5625 231.839844 92.273438 C 227.597656 86.988281 228.253906 79.085938 233.394531 74.632812 C 238.703125 70.03125 246.71875 70.757812 251.34375 75.925781 C 251.488281 76.089844 251.609375 76.257812 251.714844 76.425781 C 251.769531 76.484375 251.816406 76.542969 251.867188 76.605469 C 254.34375 79.898438 254.945312 84.058594 253.886719 87.777344 C 266.054688 90.960938 276.851562 98.945312 285.152344 108.203125 C 291.976562 115.8125 299.15625 125.855469 299.777344 136.484375 C 305.925781 139.054688 311.660156 142.574219 317.011719 146.714844 C 319.441406 143.945312 322.90625 143.023438 326.351562 143.554688 C 321.554688 123.664062 312.4375 104.722656 299.132812 88.394531 C 294.457031 82.734375 289.402344 77.40625 283.929688 72.507812 C 273.160156 62.855469 261.019531 55.148438 248.078125 49.4375 C 246.75 50.191406 245.457031 51.027344 244.191406 51.976562 C 239.910156 55.183594 235.933594 58.824219 232.167969 62.621094 C 222.898438 71.96875 214.882812 82.609375 208.699219 94.246094 "/>
<path style=" stroke:none;fill-rule:nonzero;fill:rgb(100%,87.059021%,34.899902%);fill-opacity:1;" d="M 276.3125 263.460938 C 277.574219 273.125 275.882812 282.308594 271.746094 290.46875 C 277.308594 286.519531 282.585938 282.171875 287.519531 277.457031 C 287.492188 276.671875 287.804688 275.863281 288.59375 275.160156 C 292.351562 271.824219 292.589844 264.84375 292.695312 260.203125 C 292.75 257.921875 292.847656 254.34375 292.371094 251.246094 C 287.320312 255.722656 281.945312 259.816406 276.3125 263.460938 "/>
<path style=" stroke:none;fill-rule:nonzero;fill:rgb(100%,87.059021%,34.899902%);fill-opacity:1;" d="M 224.4375 270.828125 C 230.832031 273.261719 238.855469 272.15625 245.503906 270.398438 C 258.433594 266.976562 270.511719 260.265625 281.1875 251.882812 C 281.28125 251.304688 281.527344 250.722656 281.980469 250.183594 C 290.71875 239.792969 293.535156 225.117188 289.902344 212.09375 C 287.335938 202.871094 280.644531 193.175781 270.191406 192.765625 C 265.246094 192.570312 260.589844 192.652344 255.695312 191.542969 C 250.148438 190.289062 244.792969 188.203125 239.695312 185.703125 C 222.980469 177.515625 207.824219 163.78125 199.015625 147 C 201.222656 157.710938 206.144531 167.714844 213.125 176.355469 C 223.425781 189.101562 231.011719 203.230469 233.292969 219.652344 C 235.300781 234.128906 233.285156 248.964844 228.039062 262.578125 C 226.96875 265.359375 225.757812 268.113281 224.4375 270.828125 "/>
<path style=" stroke:none;fill-rule:nonzero;fill:rgb(100%,87.059021%,34.899902%);fill-opacity:1;" d="M 321.109375 215.402344 C 319.066406 219.125 316.835938 222.753906 314.429688 226.273438 C 316.316406 228.972656 317.25 232.214844 317.53125 235.613281 C 319.269531 231.851562 320.824219 228.023438 322.207031 224.148438 C 322.011719 223.601562 321.953125 222.976562 322.089844 222.28125 C 322.589844 219.8125 322.460938 217.25 321.109375 215.402344 "/>
<path style=" stroke:none;fill-rule:nonzero;fill:rgb(100%,87.059021%,34.899902%);fill-opacity:1;" d="M 326.199219 210.910156 C 327.179688 206.964844 327.976562 202.984375 328.605469 198.980469 C 327.347656 202.398438 325.925781 205.765625 324.351562 209.070312 C 325.058594 209.617188 325.667969 210.238281 326.199219 210.910156 "/>
<path style=" stroke:none;fill-rule:nonzero;fill:rgb(100%,87.059021%,34.899902%);fill-opacity:1;" d="M 322.949219 150.429688 C 322.734375 150.558594 322.484375 150.773438 322.214844 151.035156 C 324.550781 153.105469 326.808594 155.277344 328.992188 157.527344 C 328.699219 155.394531 328.355469 153.265625 327.964844 151.144531 C 326.386719 150.136719 324.644531 149.421875 322.949219 150.429688 "/>
<path style=" stroke:none;fill-rule:nonzero;fill:rgb(100%,87.059021%,34.899902%);fill-opacity:1;" d="M 237.816406 79.667969 C 235.269531 81.8125 235.015625 85.664062 237.128906 88.183594 C 239.347656 90.828125 243.445312 91.003906 245.914062 88.617188 C 248.324219 86.285156 248.109375 83.066406 246.429688 80.496094 C 244.105469 78.054688 240.570312 77.351562 237.816406 79.667969 "/>
<path style=" stroke:none;fill-rule:nonzero;fill:rgb(100%,87.059021%,34.899902%);fill-opacity:1;" d="M 285.871094 62.085938 C 295.902344 64.925781 306.804688 65.917969 316.535156 61.667969 C 317.09375 61.421875 317.640625 61.160156 318.183594 60.882812 C 314.277344 60.820312 310.363281 60.347656 306.628906 59.679688 C 299.863281 61.824219 292.851562 62.515625 285.871094 62.085938 "/>
<path style=" stroke:none;fill-rule:nonzero;fill:rgb(100%,87.059021%,34.899902%);fill-opacity:1;" d="M 266.304688 49.582031 C 271.855469 49.90625 277.441406 49.726562 282.972656 49.207031 C 294.589844 48.128906 307.09375 45.75 317.070312 39.367188 C 318.894531 38.195312 320.574219 41.105469 318.761719 42.265625 C 308.269531 48.984375 295.1875 51.429688 282.972656 52.566406 C 279.9375 52.847656 276.675781 53.128906 273.347656 53.253906 C 279.316406 54.867188 285.449219 55.75 291.695312 55.511719 C 302.578125 55.097656 313.1875 51.019531 321.574219 44.050781 C 323.6875 42.289062 325.671875 40.371094 327.515625 38.324219 C 321.558594 38 315.574219 37.960938 309.625 38.050781 C 293.132812 38.292969 276.40625 39.8125 260.523438 44.480469 C 258.976562 44.9375 257.464844 45.414062 255.984375 45.933594 C 258.148438 46.996094 260.285156 48.117188 262.394531 49.285156 C 263.71875 49.421875 265.03125 49.507812 266.304688 49.582031 "/>
<g clip-path="url(#clip1)" clip-rule="nonzero">
<path style=" stroke:none;fill-rule:nonzero;fill:rgb(100%,87.059021%,34.899902%);fill-opacity:1;" d="M 165.320312 144.554688 C 170.578125 158.09375 179.296875 168.976562 188.078125 180.332031 C 196.257812 190.902344 203.046875 202.515625 207.578125 215.113281 C 214.847656 235.328125 215.386719 257.949219 207.238281 277.992188 C 204.195312 285.492188 200.082031 292.472656 195.097656 298.75 C 211.476562 284.683594 222.914062 263.976562 226.367188 243.40625 C 228.875 228.472656 226.804688 212.828125 220.21875 199.175781 C 216.40625 191.277344 211.058594 184.796875 205.84375 177.847656 C 201.078125 171.5 197.265625 164.464844 194.691406 156.945312 C 185.265625 129.417969 195.335938 99.933594 211.394531 77.082031 C 218.429688 67.074219 226.652344 57.769531 236.054688 49.929688 C 237.519531 48.703125 239 47.503906 240.519531 46.371094 C 226.40625 41.109375 211.507812 38.152344 196.496094 37.566406 C 196.425781 37.644531 196.351562 37.722656 196.269531 37.796875 C 182.882812 50.0625 171.820312 65.558594 165.394531 82.574219 C 157.78125 102.726562 157.5 124.402344 165.320312 144.554688 "/>
</g>
<g clip-path="url(#clip2)" clip-rule="nonzero">
<path style=" stroke:none;fill-rule:nonzero;fill:rgb(100%,87.059021%,34.899902%);fill-opacity:1;" d="M 121.609375 157.433594 C 128.808594 168.5 138.59375 176.957031 149.226562 184.621094 C 159.71875 192.1875 169.210938 201.003906 176.941406 211.386719 C 189.402344 228.113281 196.277344 249.027344 194.050781 269.921875 C 192.867188 281.058594 189.324219 291.78125 183.777344 301.382812 C 193.898438 291.328125 201.195312 278.578125 204.515625 264.492188 C 209.859375 241.847656 204.058594 218.417969 192.460938 198.648438 C 185.039062 185.992188 174.605469 175.570312 167.042969 163.023438 C 160.847656 152.734375 156.214844 141.363281 154.125 129.515625 C 148.128906 95.585938 163.191406 61.527344 186.914062 37.515625 C 166.761719 38.09375 146.671875 42.984375 128.300781 52.382812 C 119.117188 66.953125 112.664062 83.550781 110.125 100.585938 C 107.175781 120.332031 110.632812 140.570312 121.609375 157.433594 "/>
</g>
<path style=" stroke:none;fill-rule:nonzero;fill:rgb(100%,87.059021%,34.899902%);fill-opacity:1;" d="M 187.703125 258.878906 C 186.769531 236.683594 175.203125 216.710938 159.367188 201.609375 C 149.285156 191.996094 137.046875 185.082031 127.296875 175.089844 C 119.464844 167.066406 113.085938 157.738281 108.78125 147.390625 C 96.925781 118.914062 102.761719 85.992188 116.78125 59.003906 C 71.367188 88.15625 45.742188 142.519531 53.613281 196.578125 C 62.0625 254.601562 107.183594 302.128906 164.613281 313.46875 C 165.015625 313.546875 165.417969 313.617188 165.820312 313.691406 C 180.488281 299.386719 188.5625 279.34375 187.703125 258.878906 "/>
<g clip-path="url(#clip3)" clip-rule="nonzero">
<path style=" stroke:none;fill-rule:nonzero;fill:rgb(100%,87.059021%,34.899902%);fill-opacity:1;" d="M 236.957031 278.953125 C 231.570312 279.351562 226.253906 278.777344 221.3125 276.765625 C 212.019531 293.152344 198.222656 307.453125 181.417969 315.710938 C 192.25 316.488281 203.171875 316 213.886719 314.257812 C 214.007812 314.203125 214.136719 314.148438 214.265625 314.105469 C 221.132812 311.699219 226.660156 305.40625 230.492188 299.464844 C 234.425781 293.363281 237.351562 286.28125 236.957031 278.953125 "/>
</g>
<path style=" stroke:none;fill-rule:nonzero;fill:rgb(100%,87.059021%,34.899902%);fill-opacity:1;" d="M 243.585938 278.003906 C 244.460938 287.042969 240.710938 296.261719 235.761719 303.640625 C 234.167969 306.023438 232.375 308.359375 230.394531 310.53125 C 235.851562 308.949219 241.207031 307.03125 246.425781 304.769531 C 249.679688 303.359375 252.875 301.820312 256.011719 300.167969 C 265.28125 291.503906 270.980469 279.984375 270.054688 267.273438 C 262.425781 271.628906 253.074219 276.03125 243.585938 278.003906 "/>
<path style=" stroke:none;fill-rule:nonzero;fill:rgb(100%,87.059021%,34.899902%);fill-opacity:1;" d="M 310.015625 232.355469 C 306.289062 237.195312 302.222656 241.789062 297.875 246.089844 C 299.472656 250.535156 299.496094 256.011719 299.402344 260.203125 C 299.367188 261.675781 299.296875 263.265625 299.152344 264.894531 C 302.761719 260.484375 306.105469 255.851562 309.148438 251.019531 C 308.824219 250.378906 308.742188 249.585938 309.039062 248.675781 C 310.628906 243.785156 311.84375 237.433594 310.015625 232.355469 "/>
</g>
</svg>
