<?xml version="1.0" encoding="UTF-8" standalone="no"?>
<!-- Created with Inkscape (http://www.inkscape.org/) -->

<svg
   width="209.08676mm"
   height="199.90327mm"
   viewBox="0 0 209.08676 199.90327"
   version="1.1"
   id="svg5"
   xml:space="preserve"
   inkscape:version="1.2.2 (b0a8486541, 2022-12-01)"
   sodipodi:docname="eID_Addded.svg"
   xmlns:inkscape="http://www.inkscape.org/namespaces/inkscape"
   xmlns:sodipodi="http://sodipodi.sourceforge.net/DTD/sodipodi-0.dtd"
   xmlns:xlink="http://www.w3.org/1999/xlink"
   xmlns="http://www.w3.org/2000/svg"
   xmlns:svg="http://www.w3.org/2000/svg"><sodipodi:namedview
     id="namedview7"
     pagecolor="#ffffff"
     bordercolor="#000000"
     borderopacity="0.25"
     inkscape:showpageshadow="2"
     inkscape:pageopacity="0.0"
     inkscape:pagecheckerboard="0"
     inkscape:deskcolor="#d1d1d1"
     inkscape:document-units="mm"
     showgrid="false"
     inkscape:zoom="0.76078844"
     inkscape:cx="98.58194"
     inkscape:cy="531.02805"
     inkscape:window-width="1920"
     inkscape:window-height="1007"
     inkscape:window-x="0"
     inkscape:window-y="0"
     inkscape:window-maximized="1"
     inkscape:current-layer="layer1" /><defs
     id="defs2"><linearGradient
       id="linearGradient6769"
       inkscape:swatch="solid"><stop
         style="stop-color:#000000;stop-opacity:1;"
         offset="0"
         id="stop6767" /></linearGradient><linearGradient
       x1="0"
       y1="0"
       x2="1"
       y2="0"
       id="linearGradient2559"
       gradientUnits="userSpaceOnUse"
       gradientTransform="matrix(0,21.289352,21.289352,0,33.587295,364.15855)"
       spreadMethod="pad"><stop
         id="stop2561"
         style="stop-color:#58ab27;stop-opacity:1"
         offset="0" /><stop
         id="stop2563"
         style="stop-color:#93c36c;stop-opacity:1"
         offset="0.78019702" /><stop
         id="stop2565"
         style="stop-color:#93c36c;stop-opacity:1"
         offset="0.78019702" /><stop
         id="stop2567"
         style="stop-color:#93c36c;stop-opacity:1"
         offset="1" /></linearGradient><linearGradient
       x1="0"
       y1="0"
       x2="1"
       y2="0"
       id="linearGradient2688"
       xlink:href="#linearGradient2559"
       gradientUnits="userSpaceOnUse"
       gradientTransform="matrix(0,-26.61169,26.61169,0,5.06287,31.67544)"
       spreadMethod="pad" /><linearGradient
       x1="0"
       y1="0"
       x2="1"
       y2="0"
       id="linearGradient2583"
       gradientUnits="userSpaceOnUse"
       gradientTransform="matrix(0,-21.289352,21.289352,0,45.222916,385.44789)"
       spreadMethod="pad"><stop
         id="stop2585"
         style="stop-color:#88bce2;stop-opacity:1"
         offset="0" /><stop
         id="stop2587"
         style="stop-color:#5489c2;stop-opacity:1"
         offset="1" /></linearGradient><linearGradient
       x1="0"
       y1="0"
       x2="1"
       y2="0"
       id="linearGradient2683"
       xlink:href="#linearGradient2583"
       gradientUnits="userSpaceOnUse"
       gradientTransform="matrix(0,26.61169,26.61169,0,19.60739,5.06376)"
       spreadMethod="pad" /></defs><g
     inkscape:label="Ebene 1"
     inkscape:groupmode="layer"
     id="layer1"
     transform="translate(-0.41274385,-0.40948386)"><g
       id="g345"
       transform="matrix(4.4408262,0,0,4.4408262,0.49529592,0.49203593)"
       style="stroke:#000000;stroke-width:0.0371787;stroke-dasharray:none;stroke-opacity:1"><path
         d="m 5.0625,18.36987 c 0,6.95375 5.29875,12.60625 12.0675,13.305 v 0 -4.73875 C 12.98,26.27237 9.8025,22.70487 9.8025,18.36987 v 0 c 0,-4.33625 3.1775,-7.90375 7.3275,-8.5675 v 0 -4.7375 c -6.76875,0.6975 -12.0675,6.35125 -12.0675,13.305"
         id="path2569"
         style="fill:url(#linearGradient2688);stroke:#000000;stroke-width:0.0371787;stroke-dasharray:none;stroke-opacity:1" /><path
         d="m 19.6075,9.80237 c 4.14875,0.66375 7.32875,4.23125 7.32875,8.5675 v 0 c 0,4.335 -3.18,7.9025 -7.32875,8.56625 v 0 4.73875 c 6.76875,-0.69875 12.0675,-6.35125 12.0675,-13.305 v 0 c 0,-6.95375 -5.29875,-12.6075 -12.0675,-13.305 v 0 z"
         id="path2589"
         style="fill:url(#linearGradient2683);stroke:#000000;stroke-width:0.0371787;stroke-dasharray:none;stroke-opacity:1" /><path
         d="M 36.7375,31.52125 V 5.2175 c 0,0 0,-5.2175 -5.2175,-5.2175 H 5.2175 C 5.2175,0 0,0 0,5.2175 v 26.30375 c 0,0 0,5.217499 5.2175,5.217499 H 31.52 c 0,0 5.2175,0 5.2175,-5.217499 M 35.645,31.2975 c 0,4.347499 -4.3475,4.347499 -4.3475,4.347499 H 5.44 c -4.3475,0 -4.3475,-4.347499 -4.3475,-4.347499 V 5.44125 c 0,-4.3475 4.3475,-4.3475 4.3475,-4.3475 h 25.8575 c 4.3475,0 4.3475,4.3475 4.3475,4.3475 z"
         id="path2601"
         style="fill:#5489c2;fill-opacity:1;fill-rule:nonzero;stroke:#000000;stroke-width:0.0371787;stroke-dasharray:none;stroke-opacity:1" /></g><path
       d="m 144.98352,169.6344 39.73451,-39.73465 -6.45859,-6.31815 -33.27592,33.2759 -16.84858,-16.84857 -6.3182,6.31816 z m 8.28387,30.60815 q -11.51321,0 -21.76271,-4.42265 -10.24956,-4.4228 -17.90167,-12.07484 -7.65201,-7.65207 -12.0748,-17.90163 -4.422729,-10.24957 -4.422729,-21.76275 0,-11.65358 4.422729,-21.90313 4.42279,-10.24956 12.0748,-17.83145 7.65211,-7.581839 17.90167,-12.004612 10.2495,-4.42274 21.76271,-4.42274 11.65359,0 21.90314,4.42274 10.24954,4.422773 17.8314,12.004612 7.58188,7.58189 12.00462,17.83145 4.42275,10.24955 4.42275,21.90313 0,11.51318 -4.42275,21.76275 -4.42274,10.24956 -12.00462,17.90163 -7.58186,7.65204 -17.8314,12.07484 -10.24955,4.42265 -21.90314,4.42265 z m 0,-8.42431 q 19.93746,0 33.83754,-13.97026 13.90009,-13.97023 13.90009,-33.7673 0,-19.93744 -13.90009,-33.83754 -13.90008,-13.900114 -33.83754,-13.900114 -19.79706,0 -33.76736,13.900114 -13.97028,13.9001 -13.97028,33.83754 0,19.79707 13.97028,33.7673 13.9703,13.97026 33.76736,13.97026 z m 0,-47.73756 z"
       id="path67"
       style="fill:#5fae30;fill-opacity:1;stroke:#000000;stroke-width:0.140406;stroke-opacity:1" /></g></svg>
